<?xml version="1.0" standalone="no"?>
<!DOCTYPE svg PUBLIC "-//W3C//DTD SVG 20010904//EN"
 "http://www.w3.org/TR/2001/REC-SVG-20010904/DTD/svg10.dtd">
<svg version="1.0" xmlns="http://www.w3.org/2000/svg"
 width="208.000000pt" height="242.000000pt" viewBox="0 0 208.000000 242.000000"
 preserveAspectRatio="xMidYMid meet">

<g transform="translate(0.000000,242.000000) scale(0.100000,-0.100000)"
fill="#000000" stroke="none">
<path d="M945 2384 c-307 -50 -551 -272 -626 -571 -7 -29 -16 -53 -21 -53 -4
0 -15 -25 -23 -55 -18 -60 -14 -97 16 -157 25 -49 35 -178 13 -178 -12 0 -12
-5 1 -37 11 -25 12 -39 5 -43 -7 -5 -2 -18 15 -38 l27 -32 -26 0 c-33 0 -33
-7 1 -42 23 -24 25 -31 13 -38 -12 -7 -12 -12 3 -28 9 -10 14 -22 11 -25 -4
-4 -1 -13 6 -22 7 -8 10 -15 6 -15 -4 0 0 -12 7 -27 8 -16 18 -39 22 -52 7
-22 5 -23 -19 -19 -18 4 -26 1 -26 -8 0 -8 -5 -14 -11 -14 -6 0 -8 -9 -5 -20
3 -11 9 -29 12 -40 5 -18 2 -20 -21 -14 l-26 6 17 -42 17 -43 -26 -19 c-15
-11 -27 -28 -27 -38 0 -10 -7 -20 -15 -23 -19 -8 -58 -85 -51 -103 3 -8 -7
-21 -24 -31 -43 -25 -62 -74 -68 -173 -7 -127 22 -201 92 -234 20 -9 102 -27
183 -41 382 -62 628 -76 883 -51 241 24 535 72 578 93 82 42 117 200 72 332
l-21 64 20 21 c27 29 28 73 1 81 -14 4 -20 15 -20 34 0 32 -13 46 -53 56 -21
6 -26 12 -22 27 4 10 -2 33 -13 52 -14 23 -17 38 -10 49 11 21 -4 52 -33 68
-15 7 -19 17 -15 32 3 11 0 27 -6 34 -8 10 -8 20 0 37 8 18 7 29 -5 46 -15 21
-15 25 1 55 17 31 17 34 1 59 -17 25 -17 28 0 46 9 10 14 23 11 29 -4 5 -2 12
4 16 7 4 6 13 -1 28 -9 16 -9 22 0 25 6 2 11 16 11 32 0 24 3 27 21 23 20 -6
21 -3 15 29 -5 26 -2 39 9 48 14 12 13 15 -6 36 l-22 23 27 11 c26 9 26 10 10
35 -9 14 -20 25 -25 25 -5 0 -9 17 -9 38 0 42 -15 103 -28 111 -5 3 -19 40
-31 81 -77 257 -283 461 -528 524 -64 17 -216 28 -268 20z m240 -134 c197 -50
370 -214 441 -415 l17 -51 -28 -42 c-15 -23 -31 -42 -35 -42 -4 0 -19 38 -34
84 -74 236 -274 389 -511 388 -157 0 -284 -58 -394 -178 -57 -62 -117 -174
-127 -236 -6 -33 -29 -68 -37 -57 -28 36 -47 70 -47 84 0 33 54 151 96 211
155 220 410 318 659 254z m-59 -101 c152 -27 300 -141 368 -282 19 -39 38 -83
42 -97 6 -24 6 -24 -12 -9 -44 37 -47 36 -40 -22 11 -83 35 -159 52 -159 16 0
19 -16 3 -25 -7 -5 -5 -13 6 -25 11 -12 13 -20 6 -25 -6 -3 -11 -19 -11 -34 0
-16 -10 -37 -25 -51 -15 -14 -23 -30 -20 -40 3 -9 -4 -29 -16 -44 -16 -20 -18
-30 -10 -40 8 -10 8 -16 -3 -25 -9 -8 -13 -31 -12 -74 1 -51 -3 -67 -22 -91
-18 -23 -20 -31 -10 -37 10 -7 10 -11 0 -21 -18 -18 -15 -25 13 -32 22 -6 23
-8 12 -33 -9 -21 -9 -27 1 -31 6 -2 12 -12 12 -22 0 -10 5 -22 10 -25 6 -3 10
-14 10 -24 0 -10 7 -24 15 -31 9 -8 13 -20 9 -29 -4 -9 -8 -47 -10 -85 -3 -75
10 -114 48 -140 12 -9 20 -18 17 -20 -2 -3 -60 -18 -129 -34 -144 -35 -287
-55 -345 -50 l-40 3 50 25 c40 20 65 25 125 25 41 0 90 -3 109 -8 l34 -7 -7
92 c-14 183 -11 175 -71 189 -29 6 -78 10 -109 7 l-56 -5 0 54 0 53 95 0 c72
0 95 3 95 13 0 7 -16 51 -35 98 l-34 84 27 22 c15 12 47 37 72 56 l45 33 22
119 c12 66 21 123 20 127 -1 4 -30 -10 -63 -31 -61 -39 -61 -39 -74 -104 l-12
-65 -86 -40 -87 -39 -3 53 c-3 51 -1 56 45 112 29 36 66 68 93 82 57 28 170
108 170 120 0 18 -40 109 -68 156 -23 38 -31 66 -36 124 -3 41 -12 95 -19 120
l-13 45 -80 -1 c-59 0 -89 -5 -118 -21 l-40 -20 -45 20 c-32 15 -68 21 -120
21 l-74 1 -14 -40 c-8 -22 -17 -76 -20 -119 -5 -65 -12 -88 -39 -134 -18 -30
-41 -77 -50 -105 l-17 -51 39 -33 c21 -18 69 -48 105 -67 43 -24 83 -55 118
-95 51 -59 52 -62 49 -116 l-3 -55 -85 41 c-47 23 -88 46 -92 52 -3 5 -9 34
-13 63 -6 51 -8 53 -68 93 -34 22 -63 38 -65 36 -2 -2 6 -60 19 -129 l22 -126
41 -26 c23 -15 55 -37 73 -50 l31 -24 -35 -87 c-19 -49 -37 -94 -40 -100 -4
-10 18 -13 90 -13 l95 0 4 -50 3 -50 -63 0 c-89 0 -149 -17 -156 -43 -3 -12
-9 -74 -12 -138 l-7 -116 -76 19 c-42 10 -82 21 -88 23 -9 3 -5 15 12 41 30
44 31 66 6 119 -13 26 -16 45 -10 55 16 28 34 47 55 58 28 15 63 80 47 90 -8
5 -9 13 -3 22 15 24 12 43 -6 36 -12 -4 -15 -2 -10 9 3 8 9 22 12 30 4 10 0
15 -11 15 -10 0 -15 6 -12 13 19 51 19 60 2 53 -14 -5 -16 -2 -10 11 21 50 19
56 -9 49 -28 -7 -28 -7 -21 35 7 38 6 41 -13 35 -19 -6 -20 -3 -15 34 5 34 3
39 -10 34 -17 -6 -17 -10 13 88 7 22 7 34 0 36 -6 2 -4 12 5 25 19 27 19 38 0
31 -19 -8 -19 5 0 30 19 25 19 36 0 36 -14 0 -14 4 1 31 10 21 12 34 6 38 -8
4 -7 30 2 81 13 79 8 94 -25 64 -30 -27 -24 -1 22 94 105 217 326 333 555 291z
m-148 -179 c24 -11 42 -25 40 -32 -2 -7 -14 -46 -28 -85 l-24 -73 -93 0 -93 0
0 53 c0 44 9 95 25 145 7 20 123 15 173 -8z m292 -12 c6 -18 14 -66 17 -105
l6 -73 -94 0 -94 0 -29 81 c-22 62 -26 83 -17 92 21 21 75 35 138 36 60 1 61
1 73 -31z m-201 -126 l21 -63 -26 -34 c-14 -19 -29 -35 -33 -35 -3 0 -17 16
-29 35 l-24 34 22 68 c34 104 33 104 69 -5z m-618 -122 l31 -50 28 39 c51 69
62 59 39 -35 -9 -33 -19 -49 -40 -59 -15 -8 -30 -15 -32 -15 -2 0 -7 18 -10
41 -3 22 -8 43 -11 46 -10 10 -35 -18 -47 -52 -12 -33 -13 -33 -40 -19 -38 19
-48 18 -42 -6 5 -18 2 -19 -18 -11 -22 8 -24 14 -23 70 1 34 4 64 7 68 9 8 47
-27 47 -44 0 -25 15 -13 39 32 13 25 28 45 32 45 5 0 23 -23 40 -50z m534 23
c34 -39 31 -48 -16 -67 l-41 -17 -54 41 c-88 69 -88 70 5 70 77 0 83 -2 106
-27z m285 24 c0 -2 -29 -27 -64 -56 l-64 -52 -44 17 c-23 10 -45 18 -47 20 -1
1 9 19 24 38 l27 36 84 0 c46 0 84 -1 84 -3z m419 -46 l23 -42 26 38 26 38 12
-40 c14 -47 17 -85 7 -85 -5 0 -21 9 -38 20 -22 14 -47 20 -92 20 -35 0 -63 3
-63 6 0 16 56 94 65 91 6 -2 21 -23 34 -46z m-831 -26 c58 -44 57 -36 28 -163
-7 -35 -17 -66 -20 -69 -17 -17 -185 90 -186 117 0 19 44 113 71 151 23 33 15
35 107 -36z m508 -55 l26 -65 -36 -31 c-45 -39 -133 -87 -149 -81 -11 4 -54
184 -46 191 2 2 33 27 69 55 l65 52 22 -28 c13 -15 35 -57 49 -93z m209 30
c-3 -6 -17 -10 -30 -10 -19 0 -26 8 -34 38 -18 64 -12 69 30 24 22 -23 37 -47
34 -52z m-545 -39 c0 -34 -7 -45 -67 -101 -37 -35 -68 -59 -70 -54 -1 5 6 45
15 89 l18 80 45 16 c24 9 47 15 52 12 4 -2 7 -21 7 -42z m71 28 c19 -7 35 -13
37 -14 7 -6 42 -168 37 -173 -3 -3 -35 23 -70 58 -57 57 -65 69 -65 102 0 42
7 45 61 27z m-650 -86 c-9 -19 -15 -23 -23 -15 -16 16 -14 68 3 88 13 15 15
14 23 -15 6 -21 5 -40 -3 -58z m1275 73 c10 -8 17 -16 14 -19 -3 -2 -52 -1
-110 2 -98 7 -114 15 -45 24 68 9 122 6 141 -7z m83 -52 c8 -7 11 -17 7 -21
-4 -5 -62 -10 -128 -11 -118 -4 -120 -3 -113 17 4 12 2 21 -4 21 -6 0 -11 5
-11 11 0 17 231 1 249 -17z m-1420 -13 c32 -30 38 -45 22 -56 -13 -7 -58 35
-66 63 -9 30 7 28 44 -7z m161 19 c0 -19 -48 -60 -70 -60 -29 0 -21 20 20 48
36 24 50 28 50 12z m-209 -42 c7 -12 21 -30 33 -40 l21 -17 -22 -1 c-22 0 -63
42 -63 66 0 21 18 17 31 -8z m788 -74 l54 -52 -69 -71 c-38 -39 -74 -71 -80
-71 -14 0 -147 138 -142 148 1 4 34 36 71 71 78 72 61 74 166 -25z m634 57
c17 -4 33 -13 35 -20 4 -12 -13 -13 -96 -8 -105 7 -132 13 -132 29 0 10 142 9
193 -1z m-1219 -22 c-31 -35 -84 -45 -84 -17 0 11 58 37 84 38 19 0 19 0 0
-21z m-98 -63 c-3 -14 -10 -26 -15 -26 -15 0 -20 41 -9 69 10 26 10 26 20 4 6
-12 8 -33 4 -47z m1192 48 c27 -6 29 -8 19 -25 -17 -27 -97 -27 -97 -1 0 33
17 38 78 26z m159 -40 l1 -36 -36 7 c-41 7 -78 37 -68 54 4 6 29 11 55 11 l47
0 1 -36z m-1422 14 c14 -6 25 -17 25 -25 0 -7 0 -16 1 -20 2 -18 -23 -12 -46
11 -41 41 -31 58 20 34z m175 -7 c0 -17 -52 -51 -76 -51 -43 0 -21 34 33 50
38 11 43 11 43 1z m1168 -36 c28 -12 42 -24 42 -37 0 -15 -8 -18 -53 -18 l-54
0 3 38 c2 45 2 45 12 40 4 -3 26 -13 50 -23z m-83 -25 c0 -22 -5 -25 -39 -28
-22 -2 -50 -1 -63 3 -22 5 -23 6 -7 31 15 22 23 25 63 22 42 -3 46 -5 46 -28z
m-1261 -5 c28 -26 35 -55 13 -55 -17 0 -43 28 -51 58 -9 29 5 28 38 -3z m156
-15 c-20 -38 -70 -49 -70 -16 0 15 60 47 72 40 4 -3 3 -14 -2 -24z m-85 -10
c3 -11 3 -29 0 -41 -9 -29 -35 -6 -35 32 0 34 25 40 35 9z m1296 -19 c4 -1 9
-10 12 -21 4 -16 -1 -21 -29 -26 -19 -3 -49 -4 -66 0 -18 3 -60 2 -93 -3 -75
-11 -96 1 -64 35 20 21 27 22 127 19 59 -2 110 -4 113 -4z m-1381 -16 c17 -9
30 -17 30 -19 0 -3 3 -11 6 -20 9 -25 -31 -20 -56 6 -19 20 -27 48 -15 48 4 0
19 -7 35 -15z m170 0 c0 -18 -33 -65 -45 -65 -8 0 -15 2 -15 4 0 2 -3 11 -6
19 -4 10 4 21 23 31 30 16 43 19 43 11z m-76 -61 c9 -24 7 -54 -4 -54 -13 0
-32 48 -24 61 8 14 21 11 28 -7z m1292 4 c17 -27 -29 -38 -154 -38 -123 0
-125 0 -107 19 19 22 49 27 172 29 53 1 84 -2 89 -10z m-1336 -40 c0 -24 -21
-23 -54 3 -37 29 -32 38 14 26 28 -8 40 -17 40 -29z m130 22 c0 -35 -40 -78
-61 -64 -14 8 -11 19 12 48 20 25 49 35 49 16z m1188 -43 c38 -25 -24 -32
-100 -11 -11 3 -17 -2 -20 -18 -3 -21 -8 -23 -70 -24 -47 -1 -68 2 -68 10 0
16 22 43 38 47 26 8 207 4 220 -4z m-1329 -22 c28 -9 34 -33 9 -41 -21 -6 -68
21 -76 44 -4 13 23 11 67 -3z m167 -12 c-8 -31 -43 -66 -57 -57 -14 8 0 46 25
66 30 25 39 22 32 -9z m-86 -14 c7 -11 9 -28 5 -37 -5 -13 -8 -14 -19 -1 -8 8
-17 24 -21 37 -8 29 20 31 35 1z m1252 5 c16 -5 16 -8 4 -32 -8 -15 -28 -38
-46 -50 l-32 -24 -27 26 -26 25 -79 -20 c-82 -21 -105 -19 -68 7 12 8 22 22
22 30 0 12 13 13 70 8 l70 -7 0 27 c0 27 1 27 48 21 26 -4 55 -9 64 -11z
m-683 -24 c11 5 22 10 25 10 3 0 6 -49 6 -110 l0 -110 -45 0 -45 0 0 110 c0
108 1 110 20 100 14 -7 26 -8 39 0z m-449 -19 c0 -16 -41 -61 -56 -61 -22 0
-17 37 8 54 25 18 48 21 48 7z m-151 -10 c20 -13 4 -31 -27 -31 -26 1 -62 20
-62 34 0 9 73 7 89 -3z m63 -45 c6 -14 7 -33 4 -43 -7 -17 -8 -17 -22 1 -16
23 -19 66 -4 66 6 0 15 -11 22 -24z m1112 5 c16 -18 16 -20 -11 -41 -24 -19
-38 -21 -95 -18 -37 2 -70 7 -74 11 -13 13 15 31 74 49 75 22 86 22 106 -1z
m120 -7 c13 -33 -12 -54 -64 -54 -28 0 -50 3 -50 8 0 9 81 62 96 62 7 0 15 -7
18 -16z m-1286 -10 c6 -2 12 -10 12 -19 0 -23 -36 -18 -67 10 l-28 25 35 -6
c19 -3 41 -7 48 -10z m152 7 c0 -18 -42 -61 -61 -61 -22 0 -24 10 -6 32 21 27
67 47 67 29z m-144 -56 c14 -3 24 -11 21 -18 -7 -22 -44 -18 -73 8 l-29 25 28
-5 c15 -3 39 -7 53 -10z m154 -14 c-10 -20 -48 -51 -62 -51 -20 0 -5 41 20 54
40 22 55 21 42 -3z m1120 -4 c0 -8 -9 -22 -20 -32 -16 -14 -22 -15 -35 -5 -13
11 -174 17 -202 8 -8 -3 -13 5 -13 21 0 12 50 17 178 19 71 2 92 -1 92 -11z
m-1214 -19 c12 -28 7 -60 -9 -55 -14 4 -22 77 -9 77 5 0 13 -10 18 -22z m-49
-31 c18 -13 5 -36 -18 -30 -19 5 -49 39 -49 55 0 8 46 -9 67 -25z m157 1 c-18
-33 -39 -48 -66 -48 -25 0 -27 2 -17 18 20 31 100 60 83 30z m1046 -3 c7 -9
11 -17 9 -19 -11 -11 -70 -9 -93 4 -22 11 -33 11 -60 2 -43 -16 -56 -15 -56 2
0 27 179 36 200 11z m70 -5 c0 -5 -9 -10 -21 -10 -11 0 -17 5 -14 10 3 6 13
10 21 10 8 0 14 -4 14 -10z m-1313 -31 c20 -15 21 -18 8 -29 -13 -11 -20 -9
-40 10 -48 45 -22 61 32 19z m1151 5 c20 -14 34 -14 108 -4 92 13 111 8 100
-28 -5 -16 -19 -20 -74 -26 -85 -8 -186 -8 -206 0 -25 9 -19 38 12 56 33 21
33 21 60 2z m-1168 -78 c-14 -14 -41 3 -57 34 -20 39 -3 44 33 9 23 -23 31
-36 24 -43z m100 39 c0 -7 -7 -18 -15 -25 -13 -11 -15 -7 -15 25 0 32 2 36 15
25 8 -7 15 -18 15 -25z m89 -11 c-23 -25 -74 -34 -67 -12 6 16 82 56 87 45 2
-5 -7 -19 -20 -33z m451 -3 c0 -15 -6 -35 -13 -46 -13 -17 -15 -17 -30 6 -21
29 -21 43 -2 63 22 21 45 9 45 -23z m-594 -47 c-4 -13 -14 -24 -22 -24 -13 0
-15 6 -9 27 4 16 12 34 18 42 10 12 13 11 15 -3 2 -10 1 -28 -2 -42z m1328 21
c23 -23 30 -56 15 -71 -10 -9 -59 -15 -156 -20 -141 -7 -143 -7 -143 14 0 12
5 32 11 46 11 23 18 25 108 31 84 5 117 8 143 14 4 0 13 -6 22 -14z m-1396
-28 c27 -25 28 -37 2 -37 -21 0 -70 41 -70 59 0 14 42 1 68 -22z m152 6 c0
-18 -36 -43 -62 -43 -26 0 -27 2 -16 20 7 11 19 21 28 24 25 6 50 6 50 -1z
m430 -36 l45 -22 3 -82 c2 -46 -1 -83 -6 -83 -5 0 -31 10 -58 22 -40 19 -66
22 -142 21 l-94 -1 7 72 c4 39 10 75 15 79 12 13 101 25 145 20 22 -3 60 -15
85 -26z m303 17 c41 -7 42 -9 52 -106 l6 -56 -98 1 c-82 1 -106 -2 -147 -21
-27 -12 -50 -22 -52 -22 -2 0 -4 38 -4 84 l0 84 38 18 c20 10 55 21 77 25 40
7 54 6 128 -7z m-928 -24 c3 -5 1 -10 -4 -10 -6 0 -11 5 -11 10 0 6 2 10 4 10
3 0 8 -4 11 -10z m69 -31 c31 -7 54 -15 50 -18 -10 -11 -184 -7 -181 4 3 8 19
14 68 24 3 0 31 -4 63 -10z m89 0 c-8 -8 -16 -8 -30 0 -16 9 -14 10 12 11 21
0 26 -3 18 -11z m1374 -21 c17 -14 17 -33 -1 -47 -11 -9 -42 -8 -132 2 -66 7
-124 12 -130 10 -7 -3 -17 -24 -24 -49 -7 -24 -16 -44 -20 -44 -4 0 -22 16
-39 35 -32 37 -41 82 -18 91 24 9 241 22 296 18 30 -3 61 -10 68 -16z m-1333
-20 c10 -41 6 -61 -20 -95 -29 -38 -53 -42 -79 -13 -18 20 -18 21 3 43 12 13
22 35 22 49 0 40 64 53 74 16z m-92 -16 c9 -9 7 -17 -10 -35 -12 -13 -22 -32
-22 -43 0 -17 -8 -19 -100 -19 -93 0 -100 1 -100 20 1 29 24 66 51 82 29 16
163 13 181 -5z m1324 -27 c76 -9 143 -20 147 -24 5 -5 4 -17 -2 -28 -20 -39
-33 -42 -101 -26 -46 11 -90 13 -148 9 -93 -7 -88 -11 -61 62 10 26 -5 26 165
7z m-801 -69 l49 -27 49 27 c54 29 137 41 211 30 43 -7 46 -9 46 -37 0 -25 -3
-29 -22 -25 -68 14 -99 15 -153 5 -33 -6 -75 -20 -93 -31 l-33 -20 -60 27
c-49 22 -75 27 -135 27 -41 0 -83 -3 -94 -7 -17 -5 -20 -2 -20 24 0 36 13 40
126 37 66 -2 89 -7 129 -30z m-48 -51 c28 -8 56 -22 63 -30 11 -13 5 -15 -41
-15 -55 0 -228 25 -237 35 -10 10 48 22 119 24 25 0 68 -6 96 -14z m-163 -145
c42 -25 61 -63 60 -117 -2 -83 -46 -122 -125 -109 -55 9 -84 30 -109 80 -33
70 -21 132 31 163 31 17 101 9 143 -17z m704 18 c18 -18 15 -28 -10 -37 -16
-6 -30 -3 -46 7 -29 19 -75 2 -70 -26 2 -13 16 -18 59 -22 31 -3 63 -11 72
-19 26 -21 21 -67 -12 -103 -28 -31 -33 -33 -96 -33 -58 0 -69 3 -82 22 -14
21 -14 23 11 33 22 8 32 6 56 -12 28 -20 30 -20 55 -4 15 10 25 25 23 34 -3
16 -21 22 -106 38 -12 3 -28 16 -34 29 -15 34 1 67 43 88 40 19 120 22 137 5z
m-410 -45 l27 -28 -27 -3 c-15 -2 -38 4 -52 13 -30 20 -69 12 -64 -13 2 -11
24 -24 57 -34 96 -31 116 -74 61 -130 -28 -28 -35 -30 -85 -26 -57 5 -89 24
-98 59 -8 29 40 25 69 -7 18 -19 30 -24 47 -18 43 13 46 42 6 60 -114 52 -126
64 -115 108 8 32 35 45 99 45 40 1 53 -4 75 -26z m152 -93 l0 -120 -30 0 -30
0 0 120 0 120 30 0 30 0 0 -120z"/>
<path d="M668 359 c-13 -7 -18 -23 -18 -57 0 -63 21 -92 65 -92 41 0 55 20 55
78 0 62 -54 100 -102 71z"/>
</g>
</svg>
